<?xml version="1.0" encoding="UTF-8"?>
<svg width="90px" height="30px" viewBox="0 0 90 30" version="1.1" xmlns="http://www.w3.org/2000/svg" xmlns:xlink="http://www.w3.org/1999/xlink">
    <!-- Generator: Sketch 55.2 (78181) - https://sketchapp.com -->
    <title>Logo / Uniting</title>
    <desc>Created with Sketch.</desc>
    <defs>
        <path d="M76.699,25.0919375 C76.699,23.9806875 76.70525,23.7788125 76.70525,23.7788125 L76.69775,23.9406875 L76.699,23.7694375 L76.01025,23.8344375 L74.5665,23.8244375 C72.61525,23.8106875 32.727125,24.2550625 9.543375,24.8394375 C9.130875,24.8625625 8.697125,24.9494375 8.2965,24.9744375 C8.212125,24.9794375 8.14775,25.0494375 8.14775,25.1331875 L8.14775,29.3300625 C8.14775,29.4219375 8.223375,29.4944375 8.315875,29.4881875 C8.792125,29.4581875 9.677125,29.3169375 9.838375,29.3450625 C9.9915,29.3713125 74.06025,28.0900625 74.537125,28.0931875 L75.837125,28.1019375 L76.67025,28.0388125 C76.67025,28.0388125 76.620875,26.4531875 76.670875,25.9213125 C76.699625,25.6056875 76.699,25.0919375 76.699,25.0919375 L76.699,25.0919375 Z M82.564,17.2488125 C84.233375,17.2488125 84.930875,15.9494375 84.930875,14.4944375 C84.930875,13.0400625 84.233375,11.6119375 82.564,11.6119375 C80.894,11.6119375 80.11025,13.0400625 80.11025,14.4944375 C80.11025,15.9494375 80.894,17.2488125 82.564,17.2488125 L82.564,17.2488125 Z M85.404,7.7750625 C85.404,7.6875625 85.47525,7.6156875 85.563375,7.6156875 L89.6265,7.6156875 C89.714,7.6156875 89.784625,7.6875625 89.784625,7.7750625 L89.784625,20.5981875 C89.784625,25.2100625 86.729,28.0769375 82.2115,28.0769375 C81.205875,28.0769375 80.22775,27.9481875 79.303375,27.6900625 C79.234,27.6713125 79.185875,27.6069375 79.1865,27.5350625 L79.204,23.3869375 C79.204625,23.2769375 79.314625,23.2031875 79.419,23.2400625 C80.104,23.4881875 80.814625,23.6094375 81.488375,23.6094375 C83.34775,23.6094375 84.758375,22.6888125 84.758375,20.2694375 L84.758375,20.1575625 C83.72525,21.1306875 82.5715,21.4319375 81.247125,21.4319375 C76.582125,21.4319375 75.144625,17.6794375 75.144625,14.5294375 C75.144625,10.5606875 77.425875,7.2819375 81.435875,7.2819375 C83.098375,7.2819375 84.4565,7.5663125 85.404,8.5219375 L85.404,7.7750625 L85.404,7.7750625 Z M73.294,21.5950625 C73.382125,21.5950625 73.45275,21.5238125 73.45275,21.4356875 L73.45275,13.0225625 C73.45275,9.5806875 72.012125,7.2819375 68.560875,7.2819375 C66.94275,7.2819375 65.488375,7.7894375 64.540875,9.0719375 L64.264625,7.6944375 C64.25025,7.6206875 64.184625,7.5669375 64.108375,7.5669375 L60.319,7.5669375 C60.230875,7.5669375 60.159625,7.6381875 60.159625,7.7256875 L60.159625,21.4356875 C60.159625,21.5238125 60.230875,21.5950625 60.319,21.5950625 L65.035875,21.5950625 C65.124,21.5950625 65.19525,21.5238125 65.19525,21.4356875 L65.19525,13.6081875 C65.19525,12.4719375 65.78025,11.7231875 66.92525,11.7231875 C67.957125,11.7231875 68.46525,12.3088125 68.46525,13.3494375 L68.46525,21.4356875 C68.46525,21.5238125 68.535875,21.5950625 68.624625,21.5950625 L73.294,21.5950625 Z M11.232125,4.7281875 L11.232125,14.9763125 C11.232125,16.8106875 10.150875,17.9931875 8.367125,17.9931875 L8.3665,17.9931875 C6.5565,17.9931875 5.5265,16.8106875 5.5265,14.9763125 L5.5265,4.7281875 L0.8165,4.7281875 C0.710875,4.7281875 0.624625,4.8144375 0.624625,4.9200625 L0.624625,14.9506875 C0.624625,19.8019375 3.742125,22.0894375 8.3665,22.0894375 L8.367125,22.0894375 C13.015875,22.0888125 16.108375,19.8019375 16.108375,14.9506875 L16.108375,4.7281875 L11.232125,4.7281875 Z M47.96775,7.5663125 L47.96775,3.6288125 C47.96775,3.5419375 47.8965,3.4694375 47.808375,3.4694375 L43.099625,3.4694375 C43.01275,3.4694375 42.940875,3.5419375 42.940875,3.6288125 L42.940875,7.5663125 L40.8015,7.5663125 C40.714,7.5663125 40.643375,7.6375625 40.643375,7.7256875 L40.643375,11.5381875 C40.643375,11.6256875 40.714,11.6969375 40.8015,11.6969375 L42.455875,11.6969375 L42.884,11.6969375 L42.884,21.4363125 C42.884,21.5238125 42.95525,21.5950625 43.04275,21.5950625 L47.34275,21.5950625 L47.7515,21.5950625 C47.839,21.5950625 47.909625,21.5238125 47.909625,21.4363125 L47.909625,11.6969375 L47.96775,11.6969375 L49.070875,11.6969375 L50.66525,11.6969375 C50.753375,11.6969375 50.82525,11.6256875 50.82525,11.5381875 L50.82525,7.7256875 C50.82525,7.6375625 50.753375,7.5663125 50.66525,7.5663125 L47.96775,7.5663125 Z M58.244,3.4094375 C58.244,1.7456875 56.89525,0.3975625 55.232125,0.3975625 C53.569,0.3975625 52.22025,1.7456875 52.22025,3.4094375 C52.22025,5.0725625 53.569,6.4213125 55.232125,6.4213125 C56.89525,6.4213125 58.244,5.0725625 58.244,3.4094375 L58.244,3.4094375 Z M52.878375,7.5669375 C52.79025,7.5669375 52.719,7.6381875 52.719,7.7256875 L52.719,21.4363125 C52.719,21.5244375 52.79025,21.5950625 52.878375,21.5950625 L57.5865,21.5950625 C57.674625,21.5950625 57.745875,21.5244375 57.745875,21.4363125 L57.745875,7.7256875 C57.745875,7.6381875 57.674625,7.5669375 57.5865,7.5669375 L52.878375,7.5669375 L52.878375,7.5669375 Z M39.423375,3.2106875 C39.423375,1.4375625 37.9865,6.25e-05 36.213375,6.25e-05 C34.44025,6.25e-05 33.00275,1.4375625 33.00275,3.2106875 C33.00275,4.9838125 34.440875,6.4213125 36.213375,6.4213125 C37.9865,6.4213125 39.423375,4.9838125 39.423375,3.2106875 L39.423375,3.2106875 Z M33.859625,7.5669375 C33.7715,7.5669375 33.70025,7.6381875 33.70025,7.7256875 L33.70025,21.4363125 C33.70025,21.5244375 33.7715,21.5950625 33.859625,21.5950625 L38.56775,21.5950625 C38.655875,21.5950625 38.727125,21.5244375 38.727125,21.4363125 L38.727125,7.7256875 C38.727125,7.6381875 38.655875,7.5669375 38.56775,7.5669375 L33.859625,7.5669375 L33.859625,7.5669375 Z M26.65525,21.5950625 C26.5665,21.5950625 26.495875,21.5238125 26.495875,21.4356875 L26.495875,13.3494375 C26.495875,12.3088125 25.988375,11.7231875 24.955875,11.7231875 C23.810875,11.7231875 23.22525,12.4719375 23.22525,13.6081875 L23.22525,21.4356875 C23.22525,21.5238125 23.154,21.5950625 23.065875,21.5950625 L18.349625,21.5950625 C18.2615,21.5950625 18.190875,21.5238125 18.190875,21.4356875 L18.190875,7.7256875 C18.190875,7.6381875 18.2615,7.5669375 18.349625,7.5669375 L22.139,7.5669375 C22.214625,7.5669375 22.280875,7.6206875 22.29525,7.6944375 L22.5715,9.0719375 C23.51775,7.7894375 24.972125,7.2819375 26.590875,7.2819375 C30.04275,7.2819375 31.53025,9.5806875 31.53025,13.0225625 L31.53025,21.4356875 C31.53025,21.5238125 31.459,21.5950625 31.3715,21.5950625 L26.65525,21.5950625 Z" id="path-1"></path>
    </defs>
    <g id="Logo-/-Uniting" stroke="none" stroke-width="1" fill="none" fill-rule="evenodd">
        <g id="uniting-logo">
            <mask id="mask-2" fill="white">
                <use xlink:href="#path-1"></use>
            </mask>
            <use id="Mask" fill="#FFFFFF" xlink:href="#path-1"></use>
            <g id="Colour-/-Purple" mask="url(#mask-2)" fill="#A20066">
                <rect id="Rectangle" x="0" y="0" width="90" height="30"></rect>
            </g>
        </g>
    </g>
</svg>